<svg xmlns="http://www.w3.org/2000/svg" viewBox="0 0 160 200"><defs><linearGradient id="leaf" x2=".8" y2="1"><stop stop-color="#9bd1a5"/><stop offset="1" stop-color="#285d66"/></linearGradient><linearGradient id="gold" x2=".8" y2="1"><stop stop-color="#ffe3a3"/><stop offset="1" stop-color="#cb854e"/></linearGradient><linearGradient id="cloth" x2="1" y2="1"><stop stop-color="#72bac5"/><stop offset="1" stop-color="#394867"/></linearGradient><linearGradient id="wood" x2="1" y2="1"><stop stop-color="#ac785a"/><stop offset="1" stop-color="#624850"/></linearGradient><linearGradient id="roof" x2="0" y2="1"><stop stop-color="#e9a077"/><stop offset="1" stop-color="#a35050"/></linearGradient></defs><ellipse cx="80" cy="190" rx="65" ry="10" fill="#193647" opacity=".16"/><path d="M72 102l-5 85 24 0-6-85" fill="url(#wood)"/><path d="M79 168l-29-27m30 15l29-32" stroke="#73535a" stroke-width="5"/><path d="M10 140q-12-28 14-35-4-32 29-27 17-30 39-8 33-8 38 21 33 14 13 43-27 24-69 23z" fill="#b97763"/><path d="M34.5 130q22 12 42 8" fill="none" stroke="#fff1cd" opacity=".25" stroke-width="3" stroke-linecap="round"/><path d="M21 105q-12-28 14-35-4-32 29-27 17-30 39-8 33-8 38 21 33 14 13 43-27 24-69 23z" fill="#dc976c"/><path d="M41.65 95q22 12 42 8" fill="none" stroke="#fff1cd" opacity=".25" stroke-width="3" stroke-linecap="round"/><path d="M37 70q-12-28 14-35-4-32 29-27 17-30 39-8 33-8 38 21 33 14 13 43-27 24-69 23z" fill="#f0c686"/><path d="M52.05 60q22 12 42 8" fill="none" stroke="#fff1cd" opacity=".25" stroke-width="3" stroke-linecap="round"/><ellipse cx="90.7" cy="79.7" rx="3.7" ry="2.0" fill="#b88364" opacity=".4" transform="rotate(25 90.7 79.7)"/><ellipse cx="105.4" cy="55.2" rx="2.4" ry="2.2" fill="#fff0c4" opacity=".4" transform="rotate(44 105.4 55.2)"/><ellipse cx="66.1" cy="67.1" rx="4.9" ry="2.2" fill="#fff0c4" opacity=".4" transform="rotate(-18 66.1 67.1)"/><ellipse cx="61.3" cy="55.0" rx="4.4" ry="2.3" fill="#b88364" opacity=".4" transform="rotate(-16 61.3 55.0)"/><ellipse cx="91.2" cy="65.7" rx="3.8" ry="1.3" fill="#fff0c4" opacity=".4" transform="rotate(38 91.2 65.7)"/><ellipse cx="100.0" cy="61.7" rx="3.0" ry="1.9" fill="#fff0c4" opacity=".4" transform="rotate(-35 100.0 61.7)"/><ellipse cx="68.1" cy="78.2" rx="4.9" ry="1.8" fill="#b88364" opacity=".4" transform="rotate(53 68.1 78.2)"/><ellipse cx="99.4" cy="70.8" rx="3.4" ry="2.6" fill="#fff0c4" opacity=".4" transform="rotate(48 99.4 70.8)"/><ellipse cx="74.7" cy="79.9" rx="4.8" ry="1.1" fill="#fff0c4" opacity=".4" transform="rotate(2 74.7 79.9)"/><ellipse cx="88.2" cy="43.7" rx="2.8" ry="1.3" fill="#b88364" opacity=".4" transform="rotate(45 88.2 43.7)"/><ellipse cx="72.9" cy="51.1" rx="4.1" ry="1.4" fill="#fff0c4" opacity=".4" transform="rotate(-18 72.9 51.1)"/><ellipse cx="83.8" cy="52.2" rx="4.4" ry="2.4" fill="#fff0c4" opacity=".4" transform="rotate(13 83.8 52.2)"/><ellipse cx="86.4" cy="67.1" rx="2.4" ry="2.0" fill="#b88364" opacity=".4" transform="rotate(42 86.4 67.1)"/><ellipse cx="70.7" cy="46.2" rx="3.8" ry="2.9" fill="#fff0c4" opacity=".4" transform="rotate(-40 70.7 46.2)"/><ellipse cx="64.3" cy="54.3" rx="2.2" ry="1.9" fill="#fff0c4" opacity=".4" transform="rotate(42 64.3 54.3)"/><ellipse cx="101.2" cy="45.7" rx="2.9" ry="2.6" fill="#b88364" opacity=".4" transform="rotate(5 101.2 45.7)"/><ellipse cx="91.8" cy="74.2" rx="3.4" ry="1.6" fill="#fff0c4" opacity=".4" transform="rotate(-33 91.8 74.2)"/><ellipse cx="90.5" cy="81.3" rx="4.7" ry="2.5" fill="#fff0c4" opacity=".4" transform="rotate(-18 90.5 81.3)"/><ellipse cx="58.6" cy="74.9" rx="2.3" ry="2.1" fill="#b88364" opacity=".4" transform="rotate(38 58.6 74.9)"/><ellipse cx="69.1" cy="42.7" rx="3.1" ry="1.6" fill="#fff0c4" opacity=".4" transform="rotate(-11 69.1 42.7)"/><ellipse cx="63.5" cy="69.2" rx="2.2" ry="2.1" fill="#fff0c4" opacity=".4" transform="rotate(-8 63.5 69.2)"/><ellipse cx="72.2" cy="40.7" rx="2.2" ry="2.8" fill="#b88364" opacity=".4" transform="rotate(-60 72.2 40.7)"/><ellipse cx="91.1" cy="54.0" rx="2.3" ry="2.4" fill="#fff0c4" opacity=".4" transform="rotate(10 91.1 54.0)"/><ellipse cx="73.0" cy="49.5" rx="2.4" ry="2.0" fill="#fff0c4" opacity=".4" transform="rotate(-14 73.0 49.5)"/><ellipse cx="59.2" cy="73.9" rx="3.6" ry="2.1" fill="#b88364" opacity=".4" transform="rotate(39 59.2 73.9)"/><ellipse cx="86.8" cy="80.9" rx="2.2" ry="2.4" fill="#b88364" opacity=".4" transform="rotate(-29 86.8 80.9)"/><ellipse cx="122.5" cy="91.6" rx="3.5" ry="2.2" fill="#fff0c4" opacity=".4" transform="rotate(3 122.5 91.6)"/><ellipse cx="71.8" cy="103.6" rx="4.4" ry="2.9" fill="#fff0c4" opacity=".4" transform="rotate(9 71.8 103.6)"/><ellipse cx="111.2" cy="91.9" rx="2.1" ry="1.2" fill="#b88364" opacity=".4" transform="rotate(37 111.2 91.9)"/><ellipse cx="95.0" cy="94.7" rx="4.6" ry="1.3" fill="#fff0c4" opacity=".4" transform="rotate(-47 95.0 94.7)"/><ellipse cx="66.9" cy="104.7" rx="3.5" ry="1.6" fill="#fff0c4" opacity=".4" transform="rotate(35 66.9 104.7)"/><ellipse cx="112.6" cy="89.6" rx="5.0" ry="2.4" fill="#b88364" opacity=".4" transform="rotate(-41 112.6 89.6)"/><ellipse cx="53.6" cy="114.5" rx="4.0" ry="1.9" fill="#fff0c4" opacity=".4" transform="rotate(37 53.6 114.5)"/><ellipse cx="82.1" cy="109.6" rx="4.8" ry="2.9" fill="#fff0c4" opacity=".4" transform="rotate(31 82.1 109.6)"/><ellipse cx="84.5" cy="70.6" rx="3.7" ry="1.9" fill="#b88364" opacity=".4" transform="rotate(59 84.5 70.6)"/><ellipse cx="58.5" cy="116.5" rx="2.1" ry="1.1" fill="#fff0c4" opacity=".4" transform="rotate(-31 58.5 116.5)"/><ellipse cx="73.2" cy="110.4" rx="4.9" ry="1.1" fill="#fff0c4" opacity=".4" transform="rotate(-43 73.2 110.4)"/><ellipse cx="83.3" cy="92.2" rx="4.6" ry="2.6" fill="#b88364" opacity=".4" transform="rotate(52 83.3 92.2)"/><ellipse cx="42.7" cy="98.4" rx="2.0" ry="1.5" fill="#fff0c4" opacity=".4" transform="rotate(-14 42.7 98.4)"/><ellipse cx="74.8" cy="91.2" rx="4.6" ry="2.8" fill="#fff0c4" opacity=".4" transform="rotate(-50 74.8 91.2)"/><ellipse cx="49.6" cy="108.2" rx="4.8" ry="2.2" fill="#b88364" opacity=".4" transform="rotate(-47 49.6 108.2)"/><ellipse cx="114.5" cy="91.0" rx="2.2" ry="2.7" fill="#fff0c4" opacity=".4" transform="rotate(-1 114.5 91.0)"/><ellipse cx="50.8" cy="106.4" rx="3.1" ry="1.3" fill="#fff0c4" opacity=".4" transform="rotate(-31 50.8 106.4)"/><ellipse cx="100.1" cy="107.3" rx="2.8" ry="2.2" fill="#b88364" opacity=".4" transform="rotate(-46 100.1 107.3)"/><ellipse cx="79.9" cy="108.5" rx="3.2" ry="1.8" fill="#fff0c4" opacity=".4" transform="rotate(37 79.9 108.5)"/><ellipse cx="40.7" cy="88.6" rx="3.4" ry="2.6" fill="#fff0c4" opacity=".4" transform="rotate(24 40.7 88.6)"/><ellipse cx="88.4" cy="104.0" rx="4.0" ry="1.1" fill="#b88364" opacity=".4" transform="rotate(2 88.4 104.0)"/><ellipse cx="50.5" cy="109.4" rx="3.3" ry="2.8" fill="#fff0c4" opacity=".4" transform="rotate(16 50.5 109.4)"/><ellipse cx="61.6" cy="111.1" rx="5.0" ry="2.8" fill="#fff0c4" opacity=".4" transform="rotate(-52 61.6 111.1)"/><ellipse cx="106.8" cy="110.8" rx="2.8" ry="2.5" fill="#b88364" opacity=".4" transform="rotate(-21 106.8 110.8)"/><ellipse cx="64.2" cy="115.9" rx="4.6" ry="2.2" fill="#b88364" opacity=".4" transform="rotate(-41 64.2 115.9)"/><ellipse cx="66.5" cy="120.8" rx="3.0" ry="1.7" fill="#fff0c4" opacity=".4" transform="rotate(45 66.5 120.8)"/><ellipse cx="47.5" cy="118.5" rx="4.9" ry="2.3" fill="#fff0c4" opacity=".4" transform="rotate(-55 47.5 118.5)"/><ellipse cx="87.3" cy="109.5" rx="4.9" ry="2.3" fill="#b88364" opacity=".4" transform="rotate(23 87.3 109.5)"/><ellipse cx="56.0" cy="118.5" rx="2.9" ry="2.2" fill="#fff0c4" opacity=".4" transform="rotate(24 56.0 118.5)"/><ellipse cx="103.7" cy="156.0" rx="3.8" ry="2.9" fill="#fff0c4" opacity=".4" transform="rotate(-38 103.7 156.0)"/><ellipse cx="80.2" cy="131.0" rx="2.9" ry="2.9" fill="#b88364" opacity=".4" transform="rotate(-27 80.2 131.0)"/><ellipse cx="124.0" cy="123.6" rx="3.3" ry="1.1" fill="#fff0c4" opacity=".4" transform="rotate(18 124.0 123.6)"/><ellipse cx="81.6" cy="147.7" rx="2.6" ry="1.4" fill="#fff0c4" opacity=".4" transform="rotate(-4 81.6 147.7)"/><ellipse cx="129.8" cy="132.8" rx="2.9" ry="1.3" fill="#b88364" opacity=".4" transform="rotate(8 129.8 132.8)"/><ellipse cx="91.0" cy="122.7" rx="3.2" ry="2.6" fill="#fff0c4" opacity=".4" transform="rotate(25 91.0 122.7)"/><ellipse cx="48.3" cy="121.0" rx="4.3" ry="2.8" fill="#fff0c4" opacity=".4" transform="rotate(-44 48.3 121.0)"/><ellipse cx="78.1" cy="117.9" rx="2.6" ry="2.8" fill="#b88364" opacity=".4" transform="rotate(-16 78.1 117.9)"/><ellipse cx="93.8" cy="114.5" rx="2.3" ry="1.1" fill="#fff0c4" opacity=".4" transform="rotate(-29 93.8 114.5)"/><ellipse cx="62.3" cy="133.2" rx="2.9" ry="1.1" fill="#fff0c4" opacity=".4" transform="rotate(53 62.3 133.2)"/><ellipse cx="62.1" cy="128.1" rx="3.7" ry="2.6" fill="#b88364" opacity=".4" transform="rotate(18 62.1 128.1)"/><ellipse cx="104.4" cy="109.5" rx="3.1" ry="2.1" fill="#fff0c4" opacity=".4" transform="rotate(-15 104.4 109.5)"/><ellipse cx="99.5" cy="125.3" rx="5.0" ry="3.0" fill="#fff0c4" opacity=".4" transform="rotate(-34 99.5 125.3)"/><ellipse cx="91.8" cy="115.4" rx="3.2" ry="2.8" fill="#b88364" opacity=".4" transform="rotate(-2 91.8 115.4)"/><ellipse cx="89.4" cy="106.4" rx="2.1" ry="1.7" fill="#fff0c4" opacity=".4" transform="rotate(57 89.4 106.4)"/><ellipse cx="84.8" cy="111.9" rx="2.1" ry="1.1" fill="#fff0c4" opacity=".4" transform="rotate(18 84.8 111.9)"/><ellipse cx="78.3" cy="138.7" rx="2.7" ry="2.9" fill="#b88364" opacity=".4" transform="rotate(9 78.3 138.7)"/><ellipse cx="87.6" cy="123.6" rx="4.7" ry="2.2" fill="#fff0c4" opacity=".4" transform="rotate(2 87.6 123.6)"/><ellipse cx="62.2" cy="129.3" rx="3.2" ry="3.0" fill="#fff0c4" opacity=".4" transform="rotate(-30 62.2 129.3)"/><ellipse cx="47.5" cy="147.9" rx="3.2" ry="2.3" fill="#b88364" opacity=".4" transform="rotate(-44 47.5 147.9)"/><path d="M75 159l-2 23m9-27l2 17m-6-13l5-4" fill="none" stroke="#d4a583" opacity=".5" stroke-width="1.5"/></svg>