<svg xmlns="http://www.w3.org/2000/svg" viewBox="0 0 160 200"><defs><linearGradient id="leaf" x2=".8" y2="1"><stop stop-color="#9bd1a5"/><stop offset="1" stop-color="#285d66"/></linearGradient><linearGradient id="gold" x2=".8" y2="1"><stop stop-color="#ffe3a3"/><stop offset="1" stop-color="#cb854e"/></linearGradient><linearGradient id="cloth" x2="1" y2="1"><stop stop-color="#72bac5"/><stop offset="1" stop-color="#394867"/></linearGradient><linearGradient id="wood" x2="1" y2="1"><stop stop-color="#ac785a"/><stop offset="1" stop-color="#624850"/></linearGradient><linearGradient id="roof" x2="0" y2="1"><stop stop-color="#e9a077"/><stop offset="1" stop-color="#a35050"/></linearGradient></defs><ellipse cx="81" cy="186" rx="67" ry="12" fill="#244f61" opacity=".17"/><path d="M28 176V79q0-65 52-65 54 0 54 65v98" fill="none" stroke="#b7b7a5" stroke-width="22"/><path d="M29 176V79q0-64 51-64 53 0 53 64v98" fill="none" stroke="#e2d8b6" stroke-width="12"/><path d="M43 174V81q0-46 37-46 39 0 39 46v93z" fill="#86c1c4" opacity=".55"/><path d="M78 53l-7 31 12 14-17 22 21 19-9 26" fill="none" stroke="#ebf5d5" stroke-width="4"/><path d="M21 70h20m-22 35h23m75-35h23m-23 34h23M73 4v19" stroke="#7e9998" stroke-width="5"/></svg>