<svg xmlns="http://www.w3.org/2000/svg" viewBox="0 0 200 250"><defs><linearGradient id="leaf" x2=".8" y2="1"><stop stop-color="#9bd1a5"/><stop offset="1" stop-color="#285d66"/></linearGradient><linearGradient id="gold" x2=".8" y2="1"><stop stop-color="#ffe3a3"/><stop offset="1" stop-color="#cb854e"/></linearGradient><linearGradient id="cloth" x2="1" y2="1"><stop stop-color="#72bac5"/><stop offset="1" stop-color="#394867"/></linearGradient><linearGradient id="wood" x2="1" y2="1"><stop stop-color="#ac785a"/><stop offset="1" stop-color="#624850"/></linearGradient><linearGradient id="roof" x2="0" y2="1"><stop stop-color="#e9a077"/><stop offset="1" stop-color="#a35050"/></linearGradient></defs><ellipse cx="100" cy="228" rx="76" ry="12" fill="#294654" opacity=".15"/><path d="M65 95l-21 120q61 26 116-1L137 95" fill="#eadcc1" stroke="#999187" stroke-width="3"/><path d="M54 101l46-77 49 77z" fill="url(#roof)" stroke="#986f67" stroke-width="4"/><path d="M87 225v-36q14-20 28 0v39" fill="#8a7d71"/><path d="M87 149v-23l27 1v23z" fill="#a5c8c3" stroke="#a39883" stroke-width="4"/><g transform="translate(101 98) rotate(22)"><path d="M0-84v168M-84 0H84" stroke="#887c70" stroke-width="8"/><path d="M6-78h23v58H6zM-78-29h58v23h-58zM-29 20h23v58h-23zM20 6h58v23H20z" fill="#f7e7bd" stroke="#ae9977" stroke-width="3"/><path d="M7-60h20m-20 15h20m-90 17v19m16-19v19m21 41h-19m19 16h-19m61-28v19m17-19v19" stroke="#c7b695" stroke-width="2"/></g><circle cx="101" cy="98" r="10" fill="#ae8b6a"/></svg>